<svg width="140" height="47" viewBox="0 0 140 47" fill="none" xmlns="http://www.w3.org/2000/svg">
<path d="M0 45.4375V38.2188H2.875V7.875H0V0.625H13.375V7.875H10.5V38.2188H13.375V45.4375H0ZM43.9688 45.4375V26.3125H28.2188L23.875 45.4375H16.25L20.625 26.3125H16.25V19.0625H22.2812L26.5 0.625H34.125L29.875 19.0625H43.9688V0.625H51.5938V45.4375H43.9688ZM78.5625 46.0625C75.5625 46.0625 72.6875 45.5104 69.9375 44.4062C67.1875 43.3021 64.7604 41.7708 62.6562 39.8125C60.5729 37.8333 58.9062 35.3958 57.6562 32.5C56.4062 29.5833 55.7812 26.4271 55.7812 23.0312C55.7812 19.6771 56.4062 16.5521 57.6562 13.6562C58.9062 10.7396 60.5729 8.29167 62.6562 6.3125C64.7396 4.33333 67.1562 2.79167 69.9062 1.6875C72.6771 0.5625 75.5625 0 78.5625 0C81.5417 0 84.4062 0.5625 87.1562 1.6875C89.9271 2.79167 92.3542 4.33333 94.4375 6.3125C96.5417 8.29167 98.2188 10.7396 99.4688 13.6562C100.719 16.5521 101.344 19.6771 101.344 23.0312C101.344 26.4271 100.719 29.5833 99.4688 32.5C98.2188 35.3958 96.5417 37.8333 94.4375 39.8125C92.3542 41.7708 89.9271 43.3021 87.1562 44.4062C84.4062 45.5104 81.5417 46.0625 78.5625 46.0625ZM63.6562 23.0312C63.6562 26.1354 64.3438 28.8854 65.7188 31.2812C67.1146 33.6771 68.9375 35.5 71.1875 36.75C73.4375 37.9792 75.8958 38.5938 78.5625 38.5938C81.2083 38.5938 83.6562 37.9792 85.9062 36.75C88.1562 35.5 89.9792 33.6771 91.375 31.2812C92.7708 28.8854 93.4688 26.1354 93.4688 23.0312C93.4688 19.9688 92.7708 17.2396 91.375 14.8438C89.9792 12.4479 88.1562 10.625 85.9062 9.375C83.6562 8.125 81.2083 7.5 78.5625 7.5C75.8958 7.5 73.4375 8.125 71.1875 9.375C68.9375 10.625 67.1146 12.4479 65.7188 14.8438C64.3438 17.2396 63.6562 19.9688 63.6562 23.0312ZM105.5 45.4375V0.625H113.125V26.25L130.719 0.625H139.562L121.625 26.3125H125.406L128.75 38.2188H135.156V45.4375H123.188L119.844 33.5312H113.125V45.4375H105.5Z" fill="white"/>
</svg>
